<svg width="15" height="15" viewBox="0 0 15 15" fill="none" xmlns="http://www.w3.org/2000/svg">
<path fill-rule="evenodd" clip-rule="evenodd" d="M7.5 1.25C4.05 1.25 1.25 4.05 1.25 7.5C1.25 10.95 4.05 13.75 7.5 13.75C10.95 13.75 13.75 10.95 13.75 7.5C13.75 4.05 10.95 1.25 7.5 1.25ZM6.3 6.78751C6.33125 6.58126 6.4 6.40001 6.4875 6.24376C6.575 6.08751 6.7 5.95626 6.85625 5.85626C7.00625 5.76251 7.19375 5.71876 7.425 5.71251C7.56875 5.71876 7.7 5.74376 7.81875 5.79376C7.94375 5.85001 8.05625 5.92501 8.14375 6.01876C8.23125 6.11251 8.3 6.22501 8.35625 6.35001C8.4125 6.47501 8.4375 6.61251 8.44375 6.75001H9.5625C9.55 6.45626 9.49375 6.18751 9.3875 5.94376C9.28125 5.70001 9.1375 5.48751 8.95 5.31251C8.7625 5.13751 8.5375 5.00001 8.275 4.90001C8.0125 4.80001 7.725 4.75626 7.40625 4.75626C7 4.75626 6.64375 4.82501 6.34375 4.96876C6.04375 5.11251 5.79375 5.30001 5.59375 5.54376C5.39375 5.78751 5.24375 6.06876 5.15 6.39376C5.05625 6.71876 5 7.05626 5 7.41876V7.58751C5 7.95001 5.05 8.28751 5.14375 8.61251C5.2375 8.93751 5.3875 9.21876 5.5875 9.45626C5.7875 9.69376 6.0375 9.88751 6.3375 10.025C6.6375 10.1625 6.99375 10.2375 7.4 10.2375C7.69375 10.2375 7.96875 10.1875 8.225 10.0938C8.48125 10 8.70625 9.86876 8.9 9.70001C9.09375 9.53126 9.25 9.33751 9.3625 9.11251C9.475 8.88751 9.54375 8.65001 9.55 8.39376H8.43125C8.425 8.52501 8.39375 8.64376 8.3375 8.75626C8.28125 8.86876 8.20625 8.96251 8.1125 9.04376C8.01875 9.12501 7.9125 9.18751 7.7875 9.23126C7.66875 9.27501 7.54375 9.28751 7.4125 9.29376C7.1875 9.28751 7 9.24376 6.85625 9.15001C6.7 9.05001 6.575 8.91876 6.4875 8.76251C6.4 8.60626 6.33125 8.41876 6.3 8.21251C6.26875 8.00626 6.25 7.79376 6.25 7.58751V7.41876C6.25 7.20001 6.26875 6.99376 6.3 6.78751ZM2.5 7.49999C2.5 10.2562 4.74375 12.5 7.5 12.5C10.2562 12.5 12.5 10.2562 12.5 7.49999C12.5 4.74374 10.2562 2.49999 7.5 2.49999C4.74375 2.49999 2.5 4.74374 2.5 7.49999Z" fill="white"/>
</svg>
