<svg width="20" height="20" viewBox="0 0 20 20" fill="none" xmlns="http://www.w3.org/2000/svg">
<path fill-rule="evenodd" clip-rule="evenodd" d="M2.22222 20H17.7778C19.0051 20 20 19.0051 20 17.7778V2.22222C20 0.994923 19.0051 0 17.7778 0H2.22222C0.994923 0 0 0.994923 0 2.22222V17.7778C0 19.0051 0.994923 20 2.22222 20Z" fill="none"/>
<path fill-rule="evenodd" clip-rule="evenodd" d="M17.2221 17.2222H14.2542V12.1673C14.2542 10.7813 13.7276 10.0068 12.6306 10.0068C11.4373 10.0068 10.8138 10.8128 10.8138 12.1673V17.2222H7.95357V7.59262H10.8138V8.88973C10.8138 8.88973 11.6738 7.29842 13.7172 7.29842C15.7598 7.29842 17.2221 8.54571 17.2221 11.1254V17.2222ZM4.54136 6.33169C3.56711 6.33169 2.77765 5.53604 2.77765 4.55475C2.77765 3.57346 3.56711 2.7778 4.54136 2.7778C5.5156 2.7778 6.30459 3.57346 6.30459 4.55475C6.30459 5.53604 5.5156 6.33169 4.54136 6.33169ZM3.06447 17.2222H6.04693V7.59262H3.06447V17.2222Z" fill="white"/>
</svg>
