<svg width="20" height="21" viewBox="0 0 20 21" fill="none" xmlns="http://www.w3.org/2000/svg">
<path d="M9.99996 0C4.47725 0 0 4.70098 0 10.4998C0 16.2993 4.47725 21 9.99996 21C15.5229 21 20 16.2993 20 10.4998C20 4.70098 15.5229 0 9.99996 0Z" fill="#2B2A35"/>
<path d="M14.3664 14.9163C14.1894 15.2211 13.8114 15.3166 13.5222 15.1309C11.2094 13.6466 8.29827 13.3114 4.86986 14.1337C4.53948 14.2132 4.21015 13.9958 4.13489 13.649C4.05915 13.3021 4.26544 12.9564 4.59652 12.8772C8.34836 11.9767 11.5666 12.3642 14.1626 14.0299C14.4521 14.2155 14.5432 14.6125 14.3664 14.9163Z" fill="white"/>
<path d="M15.5715 12.1004C15.3487 12.4799 14.8761 12.5989 14.5152 12.3659C11.8684 10.6576 7.83223 10.1627 4.70081 11.1607C4.29481 11.2895 3.86587 11.0492 3.74249 10.6235C3.62018 10.1972 3.84917 9.74768 4.25456 9.61805C7.83177 8.47819 12.2788 9.03023 15.3189 10.9919C15.6798 11.2253 15.7934 11.7217 15.5715 12.1004Z" fill="white"/>
<path d="M15.6753 9.16811C12.5005 7.18838 7.26369 7.00634 4.23294 7.97221C3.74613 8.1273 3.23145 7.83881 3.08409 7.32781C2.9366 6.81642 3.21099 6.27637 3.69803 6.12106C7.17723 5.01221 12.9607 5.22633 16.6156 7.50439C17.0535 7.77735 17.197 8.37095 16.9375 8.82984C16.6779 9.28952 16.112 9.44103 15.6753 9.16811Z" fill="white"/>
</svg>
