<svg width="22" height="24" viewBox="0 0 22 24" fill="none" xmlns="http://www.w3.org/2000/svg">
<path d="M9.04089 6.21872H16.9751C17.119 6.21872 17.2498 6.28283 17.3444 6.38608C17.4391 6.48933 17.4978 6.63192 17.4978 6.78894V13.276C17.4978 13.433 17.4391 13.5756 17.3444 13.6789C17.2498 13.7821 17.119 13.8462 16.9751 13.8462H16.8704V15.6524C16.8704 15.7522 16.7963 15.8331 16.7048 15.8331C16.6483 15.8331 16.5983 15.8021 16.5684 15.7549L15.0941 13.8462H13.6461V8.73673C13.6461 8.5372 13.5734 8.34715 13.4442 8.20614C13.3149 8.06513 13.1407 7.98587 12.9578 7.98587H8.51819V6.78896C8.51819 6.63194 8.57694 6.48935 8.6716 6.3861C8.76624 6.28285 8.89695 6.21874 9.04088 6.21874L9.04089 6.21872Z" fill="#2B2A35"/>
<path d="M5.0244 8.1665H12.9586C13.1026 8.1665 13.2333 8.2306 13.3279 8.33386C13.4226 8.4371 13.4813 8.57971 13.4813 8.73671V15.2238C13.4813 15.3808 13.4226 15.5234 13.3279 15.6267C13.2333 15.7299 13.1026 15.794 12.9586 15.794H6.9054L5.43109 17.7027C5.40122 17.7499 5.35126 17.7809 5.29469 17.7809C5.20323 17.7809 5.12908 17.7 5.12908 17.6002V15.794H5.0244C4.88047 15.794 4.74976 15.7299 4.65512 15.6267C4.56046 15.5234 4.50171 15.3808 4.50171 15.2238V8.73671C4.50171 8.57971 4.56046 8.4371 4.65512 8.33386C4.74976 8.2306 4.88047 8.1665 5.0244 8.1665H5.0244ZM8.60792 10.8452C8.51646 10.8452 8.44231 10.9261 8.44231 11.0259C8.44231 11.1257 8.51646 11.2066 8.60792 11.2066H9.37512C9.46657 11.2066 9.54072 11.1257 9.54072 11.0259C9.54072 10.9261 9.46657 10.8452 9.37512 10.8452H8.60792ZM6.20169 10.8452C6.11024 10.8452 6.03609 10.9261 6.03609 11.0259C6.03609 11.1257 6.11024 11.2066 6.20169 11.2066H6.9689C7.06036 11.2066 7.13451 11.1257 7.13451 11.0259C7.13451 10.9261 7.06036 10.8452 6.9689 10.8452H6.20169ZM11.0141 10.8452C10.9227 10.8452 10.8485 10.9261 10.8485 11.0259C10.8485 11.1257 10.9227 11.2066 11.0141 11.2066H11.7813C11.8728 11.2066 11.9469 11.1257 11.9469 11.0259C11.9469 10.9261 11.8728 10.8452 11.7813 10.8452H11.0141Z" fill="#2B2A35"/>
</svg>
